<?xml version="1.0" encoding="UTF-8"?>
<svg width="33px" height="8px" viewBox="0 0 33 8" version="1.1" xmlns="http://www.w3.org/2000/svg" xmlns:xlink="http://www.w3.org/1999/xlink">
    <!-- Generator: Sketch 46.2 (44496) - http://www.bohemiancoding.com/sketch -->
    <title>Embed Player / Common / Apple Music Logo white</title>
    <desc>Created with Sketch.</desc>
    <defs>
        <polygon id="path-1" points="32.9353276 4.02280312 32.9353276 7.94560623 0 7.94560623 0 0.100000001 32.9353276 0.100000001 32.9353276 4.02280312"></polygon>
    </defs>
    <g id="Symbols" stroke="none" stroke-width="1" fill="none" fill-rule="evenodd">
        <g id="Embed-Player-/-Common-/-Apple-Music-Logo-white">
            <mask id="mask-2" fill="white">
                <use xlink:href="#path-1"></use>
            </mask>
            <g id="Clip-2"></g>
            <path d="M29.535569,5.33525187 L29.535569,4.69381535 C29.535569,3.60187351 30.0004138,3.06426665 30.711431,3.06426665 C31.4184655,3.06426665 31.7922759,3.60610361 31.7922759,4.18947243 L32.9353276,4.18947243 L32.9353276,4.06853011 C32.9353276,2.96851263 32.0925,2.05173526 30.7032759,2.05173526 C29.2150517,2.05173526 28.3270862,3.02677261 28.3270862,4.68958525 L28.3270862,5.33140633 C28.3270862,6.9940267 29.2068966,7.95695058 30.6989138,7.95695058 C32.1253103,7.95695058 32.9353276,7.02748292 32.9353276,5.99399333 L32.9353276,5.86882091 L31.7922759,5.86882091 C31.7922759,6.45661211 31.426431,6.94403464 30.7197759,6.94403464 C29.9960517,6.94403464 29.535569,6.43142381 29.535569,5.33525187" id="Fill-1" fill="#FFFFFF" mask="url(#mask-2)"></path>
            <polygon id="Fill-3" fill="#FFFFFF" mask="url(#mask-2)" points="25.9190345 7.848314 27.1112069 7.848314 27.1112069 2.15998729 25.9190345 2.15998729"></polygon>
            <path d="M21.599069,3.68935961 C21.599069,3.25192913 21.9567586,2.97678055 22.5323621,2.97678055 C23.1817414,2.97678055 23.506431,3.34768314 23.5352586,3.74781186 L24.6451207,3.74781186 C24.6327931,2.74335611 23.7901552,2.04327507 22.5363448,2.04327507 C21.3485345,2.04327507 20.411069,2.66433021 20.411069,3.7810758 C20.411069,4.74784523 21.0687931,5.19777372 21.8579483,5.36909264 L22.7007759,5.56463849 C23.2680345,5.69384872 23.5557414,5.88170348 23.5557414,6.26875735 C23.5557414,6.71080248 23.2022241,7.01094709 22.5405172,7.01094709 C21.8293103,7.01094709 21.4551207,6.63562212 21.4225,6.21472748 L20.2794483,6.21472748 C20.2961379,7.019215 20.8303966,7.95695058 22.4830517,7.95695058 C23.8722759,7.95695058 24.7314138,7.26917528 24.7314138,6.15204513 C24.7314138,5.11855554 24.0367069,4.71438901 23.2145517,4.53537899 L22.3637586,4.34387097 C21.8623103,4.23946449 21.599069,4.01853806 21.599069,3.68935961" id="Fill-4" fill="#FFFFFF" mask="url(#mask-2)"></path>
            <path d="M19.2706724,5.91881297 L19.2706724,2.15998729 L18.0828621,2.15998729 L18.0828621,5.75210869 C18.0828621,6.51487208 17.6347069,6.93576673 16.9769828,6.93576673 C16.3152759,6.93576673 15.866931,6.5189099 15.866931,5.75210869 L15.866931,2.15998729 L14.6832931,2.15998729 L14.6832931,5.91881297 C14.6832931,7.1318894 15.5466034,7.95695058 16.9769828,7.95695058 C18.4033793,7.95695058 19.2706724,7.1318894 19.2706724,5.91881297" id="Fill-5" fill="#FFFFFF" mask="url(#mask-2)"></path>
            <polyline id="Fill-6" fill="#FFFFFF" mask="url(#mask-2)" points="12.4506724 7.848314 13.5235517 7.848314 13.5235517 2.15998729 12.315069 2.15998729 10.7653966 5.68558081 10.7284138 5.68558081 9.17874138 2.15998729 7.96172414 2.15998729 7.96172414 7.848314 9.02227586 7.848314 9.02227586 4.16428413 9.07158621 4.16428413 10.3665517 7.08978071 11.1103793 7.08978071 12.4013621 4.16428413 12.4506724 4.16428413 12.4506724 7.848314"></polyline>
            <path d="M4.64674138,2.05115843 C4.01443103,2.00366598 3.47789655,2.40917845 3.17862069,2.40917845 C2.8747931,2.40917845 2.40672414,2.06134912 1.9102069,2.07096298 C1.25836207,2.08057683 0.657534483,2.45551724 0.321275862,3.04715398 C-0.355793103,4.23869538 0.1485,6.00437629 0.807931034,6.97114572 C1.13053448,7.44357064 1.51534483,7.97598602 2.02077586,7.95656603 C2.50724138,7.93714604 2.6912069,7.63757826 3.27932759,7.63757826 C3.86687931,7.63757826 4.03282759,7.95656603 4.54717241,7.94714445 C5.07081034,7.93714604 5.40251724,7.4649134 5.72265517,6.9897966 C6.09343103,6.44142222 6.24553448,5.91035277 6.25463793,5.88247259 C6.24306897,5.87785794 5.23391379,5.48542031 5.22386207,4.30676148 C5.21475862,3.32134117 6.01718966,2.84776259 6.0537931,2.82488162 C5.59824138,2.1447974 4.89462069,2.06980931 4.64674138,2.05115843" id="Fill-7" fill="#FFFFFF" mask="url(#mask-2)"></path>
            <path d="M4.37205856,1.41170978 C4.64757207,1.06455813 4.83299888,0.580858806 4.78182653,0.100000001 C4.38528944,0.116231522 3.90567024,0.375327174 3.62120643,0.722478825 C3.3665121,1.02986325 3.14275466,1.52228701 3.2036556,1.99340691 C3.64552789,2.02891336 4.09673963,1.75926722 4.37205856,1.41170978" id="Fill-9" fill="#FFFFFF" mask="url(#mask-2)"></path>
        </g>
    </g>
</svg>