<svg xmlns="http://www.w3.org/2000/svg" width="38" height="48" viewBox="0 0 38 48">
  <path fill="#DBDBDC" fill-rule="evenodd" d="M162.152378,166.009 C161.973676,166.023 160.392054,166.293 160.202054,166.33 L140.498541,170.039 C139.919297,170.157 139.472541,170.35 139.125405,170.629 C138.707405,170.966 138.476324,171.44 138.389027,171.994 C138.369514,172.112 138.338703,172.351 138.338703,172.705 L138.338703,199.522 C138.338703,200.7 137.449297,201.681 136.244595,201.904 C136.235351,201.906 130.966703,202.765 130.966703,202.765 C128.07973,203.317 126,205.749 126,208.574 C126,211.626 128.596324,213.998 131.638378,213.998 C132.005027,213.998 132.377838,213.964 132.75373,213.892 L134.572595,213.544 C137.940216,212.9 140.366054,209.984 140.366054,206.455 L140.367081,183.25 C140.367081,182.028 140.767622,181.706 141.793622,181.468 C141.793622,181.468 159.310595,177.945 160.157892,177.786 C160.383838,177.745 160.588216,177.723 160.771027,177.723 C161.549514,177.723 161.940811,178.119 161.940811,179.084 L161.939784,194.55 C161.939784,195.73 161.050378,196.712 159.843622,196.936 C159.835405,196.938 154.98373,197.887 154.98373,197.887 C151.873892,198.436 149.634973,200.855 149.634973,203.665 C149.634973,206.702 152.430541,209.061 155.706757,209.061 C156.102162,209.061 156.50373,209.027 156.908378,208.956 L158.866919,208.61 C163.100324,207.408 164,203.544 164,200.861 L164,167.867 C164,166.728 163.411514,166 162.35573,166 C162.29,166 162.222216,166.003 162.152378,166.009 Z" transform="translate(-126 -166)"/>
</svg>
