<?xml version="1.0" encoding="UTF-8"?>
<svg width="36px" height="36px" viewBox="0 0 36 36" version="1.1" xmlns="http://www.w3.org/2000/svg" xmlns:xlink="http://www.w3.org/1999/xlink">
    <!-- Generator: Sketch 49.3 (51167) - http://www.bohemiancoding.com/sketch -->
    <title>Music/Glyphs/Account</title>
    <desc>Created with Sketch.</desc>
    <defs>
        <polygon id="path-1" points="0 0 36 0 36 36 0 36"></polygon>
    </defs>
    <g id="Music/Glyphs/Account" stroke="none" stroke-width="1" fill="none" fill-rule="evenodd">
        <g>
            <mask id="mask-2" fill="white">
                <use xlink:href="#path-1"></use>
            </mask>
            <g id="Clip-2"></g>
            <path d="M18,7.84307315 C21.344495,7.84307315 23.9814377,10.7870862 23.9814377,14.314671 C23.9814377,18.0596649 21.3723385,20.9382918 18,20.9105027 C14.6161965,20.8843482 12.0054595,18.0596649 12.0054595,14.314671 C11.977616,10.7870862 14.6424022,7.84307315 18,7.84307315 M29.6516833,28.2926032 C32.0298453,25.5512873 33.4580528,21.955047 33.4580528,18.0057213 C33.4580528,9.38945648 26.6609645,2.45688598 18,2.45688598 C9.34067334,2.45688598 2.54194722,9.38945648 2.54194722,18.0057213 C2.54194722,21.955047 3.97015469,25.5512873 6.3499545,28.2926032 C7.98125569,25.9713935 12.3035487,23.8953821 18,23.8953821 C23.6980892,23.8953821 28.033485,25.9713935 29.6516833,28.2926032 M0,18.0057213 C0,8.10134859 8.10245678,0 18,0 C27.9122839,0 36,8.10134859 36,18.0057213 C36,27.8986514 27.9122839,36 18,36 C8.10245678,36 0,27.8986514 0,18.0057213" id="Fill-1" fill="#FF2D55" mask="url(#mask-2)"></path>
        </g>
    </g>
</svg>
