<?xml version="1.0" encoding="UTF-8"?>
<svg width="88px" height="88px" viewBox="0 0 88 88" version="1.1" xmlns="http://www.w3.org/2000/svg" xmlns:xlink="http://www.w3.org/1999/xlink">
    <!-- Generator: Sketch 49 (51002) - http://www.bohemiancoding.com/sketch -->
    <title>Asset/Embed/HUD/Add</title>
    <desc>Created with Sketch.</desc>
    <defs></defs>
    <g id="Asset/Embed/HUD/Add" stroke="none" stroke-width="1" fill="#990000" fill-rule="evenodd">
        <path d="M57,41 L47,41 L47,31 C47,29.343 45.657,28 44,28 C42.343,28 41,29.343 41,31 L41,41 L31,41 C29.343,41 28,42.343 28,44 C28,45.657 29.343,47 31,47 L41,47 L41,57 C41,58.657 42.343,60 44,60 C45.657,60 47,58.657 47,57 L47,47 L57,47 C58.657,47 60,45.657 60,44 C60,42.343 58.657,41 57,41" id="Fill-1" fill="#999999"></path>
    </g>
</svg>
