<?xml version="1.0" encoding="UTF-8"?>
<svg width="88px" height="88px" viewBox="0 0 88 88" version="1.1" xmlns="http://www.w3.org/2000/svg" xmlns:xlink="http://www.w3.org/1999/xlink">
    <!-- Generator: Sketch 49 (51002) - http://www.bohemiancoding.com/sketch -->
    <title>Asset/Embed/HUD/Embed Song</title>
    <desc>Created with Sketch.</desc>
    <defs></defs>
    <g id="Asset/Embed/HUD/Embed-Song" stroke="none" stroke-width="1" fill="none" fill-rule="evenodd">
        <path d="M66.7007,24.0001 C65.4457,24.0001 64.3597,24.8461 64.0427,26.0711 L54.8027,60.4011 C54.7427,60.6171 54.7137,60.8961 54.7137,61.1661 C54.7137,62.7241 55.9487,63.9521 57.4587,63.9521 C58.6847,63.9521 59.7727,63.1151 60.0937,61.9341 L69.3147,27.6151 C69.3827,27.3691 69.4247,27.0911 69.4247,26.8071 C69.4247,25.2631 68.2007,24.0001 66.7007,24.0001 M87.0177,41.7951 L78.0177,30.8401 C77.0267,29.5981 76.1407,29.0631 74.9807,29.0631 C73.1677,29.0631 72.3427,30.1561 72.3427,32.1291 C72.3427,32.5561 72.4957,32.9831 72.7657,33.4471 C72.9147,33.7041 73.0967,33.9671 73.3217,34.2591 C73.4307,34.4011 73.5207,34.5141 73.7007,34.7351 L81.3767,44.1351 L73.6697,53.6581 C73.1047,54.4001 72.8327,55.1601 72.8327,55.9991 C72.8327,56.1671 72.8447,56.3341 72.8677,56.4981 C73.1117,58.2051 73.9947,59.1691 75.6007,59.1691 C76.2377,59.1691 76.6107,59.0811 76.9957,58.7821 C77.2647,58.5721 77.0197,58.8651 78.0827,57.5491 L86.9967,46.6831 C87.6127,45.9301 87.9267,45.0991 87.9267,44.2121 C87.9267,43.3421 87.5937,42.4731 87.0177,41.7951 M46.9577,29.0631 C45.7967,29.0631 44.9117,29.5981 43.9137,30.8481 L34.9127,41.8051 C34.3447,42.4731 34.0117,43.3421 34.0117,44.2121 C34.0117,45.0991 34.3257,45.9301 34.9427,46.6831 L43.8597,57.5531 C44.9187,58.8651 44.6737,58.5721 44.9427,58.7821 C45.3277,59.0811 45.7007,59.1691 46.3377,59.1691 C47.9437,59.1691 48.8267,58.2051 49.0707,56.4981 C49.0937,56.3341 49.1057,56.1671 49.1057,55.9991 C49.1057,55.1601 48.8337,54.4001 48.2827,53.6761 L40.5617,44.1351 L48.2367,34.7371 C48.4177,34.5141 48.5077,34.4011 48.6177,34.2591 C48.8417,33.9671 49.0237,33.7041 49.1727,33.4471 C49.4427,32.9831 49.5957,32.5561 49.5957,32.1291 C49.5957,30.1561 48.7707,29.0631 46.9577,29.0631" id="Fill-1" fill="#999999"></path>
        <path d="M28.9997,52.9601 L2.9997,52.9601 C1.3437,52.9601 -0.0003,54.3031 -0.0003,55.9601 C-0.0003,57.6171 1.3437,58.9601 2.9997,58.9601 L28.9997,58.9601 C30.6567,58.9601 31.9997,57.6171 31.9997,55.9601 C31.9997,54.3031 30.6567,52.9601 28.9997,52.9601" id="Path" fill-opacity="0.4" fill="#999999"></path>
        <path d="M2.9997,45.9601 L20.9997,45.9601 C22.6567,45.9601 23.9997,44.6171 23.9997,42.9601 C23.9997,41.3031 22.6567,39.9601 20.9997,39.9601 L2.9997,39.9601 C1.3437,39.9601 -0.0003,41.3031 -0.0003,42.9601 C-0.0003,44.6171 1.3437,45.9601 2.9997,45.9601" id="Path" fill-opacity="0.4" fill="#999999"></path>
        <path d="M28.9997,26.9601 L2.9997,26.9601 C1.3437,26.9601 -0.0003,28.3031 -0.0003,29.9601 C-0.0003,31.6171 1.3437,32.9601 2.9997,32.9601 L28.9997,32.9601 C30.6567,32.9601 31.9997,31.6171 31.9997,29.9601 C31.9997,28.3031 30.6567,26.9601 28.9997,26.9601" id="Path" fill-opacity="0.4" fill="#999999"></path>
    </g>
</svg>