<?xml version="1.0" encoding="UTF-8"?>
<svg width="88px" height="88px" viewBox="0 0 88 88" version="1.1" xmlns="http://www.w3.org/2000/svg" xmlns:xlink="http://www.w3.org/1999/xlink">
    <!-- Generator: Sketch 49 (51002) - http://www.bohemiancoding.com/sketch -->
    <title>Asset/Embed/HUD/Embed Code</title>
    <desc>Created with Sketch.</desc>
    <defs></defs>
    <g id="Asset/Embed/HUD/Embed-Code" stroke="none" stroke-width="1" fill="none" fill-rule="evenodd">
        <path d="M49.6886,24.0001 C48.4336,24.0001 47.3476,24.8461 47.0306,26.0711 L37.7906,60.4011 C37.7316,60.6171 37.7016,60.8961 37.7016,61.1661 C37.7016,62.7241 38.9376,63.9521 40.4466,63.9521 C41.6726,63.9521 42.7606,63.1151 43.0816,61.9341 L52.3026,27.6151 C52.3706,27.3691 52.4136,27.0911 52.4136,26.8071 C52.4136,25.2631 51.1886,24.0001 49.6886,24.0001 M29.9466,29.0631 C28.7856,29.0631 27.8996,29.5981 26.9016,30.8481 L17.9006,41.8051 C17.3336,42.4731 17.0006,43.3421 17.0006,44.2121 C17.0006,45.1001 17.3136,45.9301 17.9306,46.6831 L26.8476,57.5531 C27.9066,58.8651 27.6616,58.5721 27.9316,58.7821 C28.3156,59.0811 28.6896,59.1691 29.3256,59.1691 C30.9316,59.1691 31.8146,58.2051 32.0586,56.4981 C32.0816,56.3341 32.0936,56.1671 32.0936,55.9991 C32.0936,55.1601 31.8216,54.4001 31.2706,53.6761 L23.5506,44.1351 L31.2246,34.7371 C31.4056,34.5141 31.4956,34.4011 31.6056,34.2591 C31.8306,33.9671 32.0116,33.7041 32.1616,33.4471 C32.4306,32.9831 32.5836,32.5561 32.5836,32.1291 C32.5836,30.1561 31.7586,29.0631 29.9466,29.0631 M70.0056,41.7951 L61.0066,30.8401 C60.0146,29.5981 59.1296,29.0631 57.9686,29.0631 C56.1556,29.0631 55.3316,30.1561 55.3316,32.1291 C55.3316,32.5561 55.4846,32.9831 55.7536,33.4471 C55.9036,33.7041 56.0846,33.9671 56.3096,34.2591 C56.4186,34.4011 56.5086,34.5141 56.6886,34.7351 L64.3646,44.1351 L56.6576,53.6581 C56.0936,54.4001 55.8206,55.1601 55.8206,55.9991 C55.8206,56.1671 55.8336,56.3341 55.8566,56.4981 C56.1006,58.2051 56.9826,59.1691 58.5886,59.1691 C59.2256,59.1691 59.5986,59.0811 59.9836,58.7821 C60.2526,58.5721 60.0076,58.8651 61.0706,57.5491 L69.9846,46.6831 C70.6006,45.9301 70.9146,45.1001 70.9146,44.2121 C70.9146,43.3421 70.5826,42.4731 70.0056,41.7951" id="Fill-1" fill="#999999"></path>
    </g>
</svg>