<?xml version="1.0" encoding="UTF-8"?>
<svg width="88px" height="88px" viewBox="0 0 88 88" version="1.1" xmlns="http://www.w3.org/2000/svg" xmlns:xlink="http://www.w3.org/1999/xlink">
    <!-- Generator: Sketch 49 (51002) - http://www.bohemiancoding.com/sketch -->
    <title>Asset/Embed/HUD/Copy Link</title>
    <desc>Created with Sketch.</desc>
    <defs></defs>
    <g id="Asset/Embed/HUD/Copy-Link" stroke="none" stroke-width="1" fill="none" fill-rule="evenodd">
        <path d="M60.3627,27.8555 C58.4637,26.0345 56.3937,25.0845 54.1547,25.0055 C51.9147,24.9265 49.9177,25.7265 48.1627,27.4035 L45.7657,29.7825 C45.3207,30.2805 45.0917,30.8305 45.0777,31.4335 C45.0657,32.0365 45.2947,32.5935 45.7657,33.1045 C46.2507,33.5895 46.8067,33.8325 47.4357,33.8325 C48.0647,33.8325 48.6147,33.6025 49.0857,33.1445 L51.4827,30.7455 C52.4387,29.9725 53.4017,29.6445 54.3707,29.7625 C55.3527,29.8805 56.2497,30.3585 57.0627,31.1975 C57.8737,32.0365 58.2797,33.0395 58.2797,34.2055 C58.2797,35.3585 57.8677,36.3485 57.0427,37.1735 L49.4987,44.6635 C47.7827,46.2495 46.4797,46.9505 45.5897,46.7675 C44.6987,46.5835 44.0757,46.2565 43.7227,45.7845 C43.2647,45.3385 42.7207,45.1155 42.0917,45.1155 C41.4637,45.1155 40.9067,45.3515 40.4227,45.8235 C39.9507,46.2955 39.7147,46.8455 39.7147,47.4745 C39.7147,48.1045 39.9507,48.6605 40.4227,49.1465 C41.9937,50.7185 43.7557,51.5045 45.7067,51.5045 C48.1037,51.5045 50.4737,50.3455 52.8187,48.0255 L60.3627,40.4965 C62.1177,38.7395 62.9947,36.6435 62.9947,34.2055 C62.9947,31.7685 62.1177,29.6515 60.3627,27.8555 M40.5597,54.4735 C39.9307,54.4735 39.3807,54.7025 38.9097,55.1615 L36.9837,57.0875 C36.1197,57.9135 35.1117,58.3265 33.9587,58.3265 C32.8057,58.3265 31.8107,57.9135 30.9727,57.0875 C30.1337,56.2625 29.7157,55.2725 29.7157,54.1195 C29.7157,52.9665 30.1277,51.9705 30.9527,51.1315 L38.0447,44.1135 C38.8697,43.2095 39.8527,42.4945 40.9917,41.9705 C42.1317,41.4465 43.2247,41.6235 44.2727,42.5015 C44.7317,42.9595 45.2807,43.1895 45.9237,43.1895 C46.5647,43.1895 47.1217,42.9535 47.5927,42.4815 C48.0647,42.0095 48.2937,41.4595 48.2807,40.8305 C48.2807,40.2015 48.0447,39.6445 47.5727,39.1595 C45.8047,37.4685 43.7817,36.7675 41.5027,37.0565 C39.2237,37.3445 36.9647,38.5765 34.7247,40.7515 L27.6327,47.7705 C25.8777,49.5785 24.9997,51.7015 24.9997,54.1395 C24.9997,56.5765 25.8777,58.6675 27.6327,60.4105 C29.3877,62.1535 31.4967,63.0245 33.9587,63.0245 C36.4077,63.0245 38.5227,62.1535 40.3037,60.4105 L42.2297,58.5225 C42.6877,58.0245 42.9177,57.4745 42.9177,56.8715 C42.9177,56.2695 42.6877,55.7115 42.2297,55.2005 C41.7447,54.7155 41.1887,54.4735 40.5597,54.4735" id="Fill-1" fill="#999999"></path>
    </g>
</svg>