<?xml version="1.0" encoding="UTF-8"?>
<svg width="88px" height="88px" viewBox="0 0 88 88" version="1.1" xmlns="http://www.w3.org/2000/svg" xmlns:xlink="http://www.w3.org/1999/xlink">
    <!-- Generator: Sketch 49 (51002) - http://www.bohemiancoding.com/sketch -->
    <title>Asset/Embed/HUD/Add Playlist</title>
    <desc>Created with Sketch.</desc>
    <defs></defs>
    <g id="Asset/Embed/HUD/Add-Playlist" stroke="none" stroke-width="1" fill="none" fill-rule="evenodd">
        <path d="M79.0002,41 L69.0002,41 L69.0002,31 C69.0002,29.343 67.6572,28 66.0002,28 C64.3432,28 63.0002,29.343 63.0002,31 L63.0002,41 L53.0002,41 C51.3432,41 50.0002,42.343 50.0002,44 C50.0002,45.657 51.3432,47 53.0002,47 L63.0002,47 L63.0002,57 C63.0002,58.657 64.3432,60 66.0002,60 C67.6572,60 69.0002,58.657 69.0002,57 L69.0002,47 L79.0002,47 C80.6572,47 82.0002,45.657 82.0002,44 C82.0002,42.343 80.6572,41 79.0002,41" id="Fill-1" fill="#FF2D55"></path>
        <path d="M41.0002,54 L10.0002,54 C8.3432,54 7.0002,55.343 7.0002,57 C7.0002,58.657 8.3432,60 10.0002,60 L41.0002,60 C42.6572,60 44.0002,58.657 44.0002,57 C44.0002,55.343 42.6572,54 41.0002,54" id="Path" fill-opacity="0.4" fill="#FF2D55"></path>
        <path d="M10.0002,47 L33.0002,47 C34.6572,47 36.0002,45.657 36.0002,44 C36.0002,42.343 34.6572,41 33.0002,41 L10.0002,41 C8.3432,41 7.0002,42.343 7.0002,44 C7.0002,45.657 8.3432,47 10.0002,47" id="Path" fill-opacity="0.4" fill="#FF2D55"></path>
        <path d="M41.0002,28 L10.0002,28 C8.3432,28 7.0002,29.343 7.0002,31 C7.0002,32.657 8.3432,34 10.0002,34 L41.0002,34 C42.6572,34 44.0002,32.657 44.0002,31 C44.0002,29.343 42.6572,28 41.0002,28" id="Path" fill-opacity="0.4" fill="#FF2D55"></path>
    </g>
</svg>
