<?xml version="1.0" encoding="UTF-8"?>
<svg width="88px" height="88px" viewBox="0 0 88 88" version="1.1" xmlns="http://www.w3.org/2000/svg" xmlns:xlink="http://www.w3.org/1999/xlink">
    <!-- Generator: Sketch 49 (51002) - http://www.bohemiancoding.com/sketch -->
    <title>Asset/Embed/HUD/Copy Link Playlist</title>
    <desc>Created with Sketch.</desc>
    <defs></defs>
    <g id="Asset/Embed/HUD/Copy-Link-Playlist" stroke="none" stroke-width="1" fill="none" fill-rule="evenodd">
        <path d="M77.367,27.8533312 C75.468,26.0333312 73.398,25.0833312 71.159,25.0053312 C68.919,24.9263312 66.922,25.7253312 65.167,27.4013312 L62.77,29.7783312 C62.325,30.2763312 62.096,30.8263312 62.082,31.4283312 C62.069,32.0303312 62.298,32.5873312 62.77,33.0973312 C63.254,33.5823312 63.811,33.8243312 64.44,33.8243312 C65.068,33.8243312 65.618,33.5953312 66.09,33.1373312 L68.487,30.7403312 C69.443,29.9683312 70.406,29.6413312 71.375,29.7583312 C72.357,29.8763312 73.254,30.3543312 74.066,31.1923312 C74.878,32.0303312 75.284,33.0323312 75.284,34.1983312 C75.284,35.3503312 74.871,36.3383312 74.047,37.1643312 L66.502,44.6473312 C64.787,46.2313312 63.484,46.9323312 62.593,46.7493312 C61.702,46.5653312 61.08,46.2383312 60.727,45.7673312 C60.268,45.3213312 59.724,45.0993312 59.096,45.0993312 C58.467,45.0993312 57.91,45.3343312 57.426,45.8063312 C56.955,46.2773312 56.719,46.8273312 56.719,47.4563312 C56.719,48.0843312 56.955,48.6413312 57.426,49.1253312 C58.998,50.6973312 60.76,51.4823312 62.711,51.4823312 C65.108,51.4823312 67.478,50.3243312 69.823,48.0063312 L77.367,40.4833312 C79.122,38.7283312 79.999,36.6333312 79.999,34.1983312 C79.999,31.7623312 79.122,29.6473312 77.367,27.8533312 M57.564,54.4483312 C56.935,54.4483312 56.385,54.6783312 55.913,55.1363312 L53.988,57.0613312 C53.124,57.8853312 52.116,58.2983312 50.963,58.2983312 C49.81,58.2983312 48.815,57.8853312 47.976,57.0613312 C47.138,56.2363312 46.719,55.2473312 46.719,54.0953312 C46.719,52.9423312 47.132,51.9473312 47.957,51.1093312 L55.049,44.0973312 C55.874,43.1933312 56.856,42.4803312 57.996,41.9563312 C59.136,41.4323312 60.229,41.6093312 61.277,42.4863312 C61.735,42.9453312 62.285,43.1743312 62.927,43.1743312 C63.569,43.1743312 64.125,42.9383312 64.596,42.4673312 C65.068,41.9953312 65.298,41.4453312 65.284,40.8173312 C65.284,40.1883312 65.049,39.6313312 64.577,39.1473312 C62.809,37.4583312 60.785,36.7573312 58.507,37.0453312 C56.228,37.3333312 53.969,38.5643312 51.729,40.7383312 L44.637,47.7503312 C42.882,49.5583312 42.004,51.6793312 42.004,54.1143312 C42.004,56.5503312 42.882,58.6383312 44.637,60.3803312 C46.391,62.1223312 48.5,62.9933312 50.963,62.9933312 C53.412,62.9933312 55.527,62.1223312 57.308,60.3803312 L59.233,58.4953312 C59.692,57.9973312 59.921,57.4473312 59.921,56.8443312 C59.921,56.2433312 59.692,55.6863312 59.233,55.1753312 C58.749,54.6903312 58.192,54.4483312 57.564,54.4483312" id="Fill-1" fill="#FF2D55"></path>
        <path d="M29,53.9953312 L12,53.9953312 C10.344,53.9953312 9,55.3383312 9,56.9953312 C9,58.6523312 10.344,59.9953312 12,59.9953312 L29,59.9953312 C30.657,59.9953312 32,58.6523312 32,56.9953312 C32,55.3383312 30.657,53.9953312 29,53.9953312" id="Path" fill-opacity="0.4" fill="#FF2D55"></path>
        <path d="M32,40.9953312 L12,40.9953312 C10.344,40.9953312 9,42.3383312 9,43.9953312 C9,45.6513312 10.344,46.9953312 12,46.9953312 L32,46.9953312 C33.657,46.9953312 35,45.6513312 35,43.9953312 C35,42.3383312 33.657,40.9953312 32,40.9953312" id="Path" fill-opacity="0.4" fill="#FF2D55"></path>
        <path d="M12,33.9953312 L46,33.9953312 C47.657,33.9953312 49,32.6513312 49,30.9953312 C49,29.3383312 47.657,27.9953312 46,27.9953312 L12,27.9953312 C10.344,27.9953312 9,29.3383312 9,30.9953312 C9,32.6513312 10.344,33.9953312 12,33.9953312" id="Path" fill-opacity="0.4" fill="#FF2D55"></path>
    </g>
</svg>