<svg xmlns="http://www.w3.org/2000/svg" viewBox="0 0 173.4 40.5"><path d="M155.5 26.9v-3.3c0-5.7 2.5-8.5 6.2-8.5s5.7 2.8 5.7 5.9h6v-.6c0-5.7-4.4-10.5-11.8-10.5-7.8 0-12.5 5.1-12.5 13.7v3.3c0 8.6 4.6 13.7 12.5 13.7 7.5 0 11.8-4.8 11.8-10.2v-.6h-6c0 3.1-1.9 5.6-5.7 5.6-3.8-.2-6.2-2.8-6.2-8.5zm-19.1 13h6.3V10.4h-6.3v29.5zm-22.7-21.6c0-2.3 1.9-3.7 4.9-3.7 3.4 0 5.1 1.9 5.3 4h5.9c-.1-5.2-4.5-8.9-11.1-8.9-6.3 0-11.2 3.2-11.2 9 0 5 3.5 7.4 7.6 8.3l4.4 1c3 .7 4.5 1.6 4.5 3.7 0 2.3-1.9 3.9-5.4 3.9-3.8 0-5.7-1.9-5.9-4.1h-6c.1 4.2 2.9 9.1 11.6 9.1 7.3 0 11.9-3.6 11.9-9.4 0-5.4-3.7-7.5-8-8.4l-4.5-1c-2.7-.6-4-1.8-4-3.5zm-12.3 11.6V10.4h-6.3V29c0 4-2.4 6.2-5.8 6.2-3.5 0-5.9-2.2-5.9-6.2V10.4h-6.2v19.5c0 6.3 4.6 10.6 12.1 10.6s12.1-4.3 12.1-10.6zm-36 10h5.7V10.4h-6.4l-8.2 18.3h-.2l-8.2-18.3h-6.4V40h5.6V20.8h.3L54.4 36h3.9l6.8-15.2h.3v19.1zm-35.3-12c-1.8-1.7-2.7-3.9-2.7-6.4-.1-3.3 1.4-5.9 4.3-7.7-1.7-2.4-4.1-3.7-7.4-4-1.2-.1-2.6.2-4.4.8-1.9.7-3 1.1-3.3 1.1-.5 0-1.5-.3-2.9-.9-1.4-.7-2.7-1-3.7-1-1.7 0-3.3.5-4.8 1.4-1.5.9-2.7 2.1-3.5 3.7-1.1 1.9-1.7 4.3-1.7 7 0 2.4.4 4.9 1.2 7.3.8 2.3 1.8 4.4 3 6.1 1.1 1.6 2 2.8 2.8 3.5 1.2 1.1 2.3 1.7 3.5 1.6.8 0 1.8-.3 3.1-.9 1.2-.5 2.4-.8 3.5-.8s2.2.3 3.4.8c1.3.5 2.4.8 3.2.8 1.2-.1 2.4-.6 3.5-1.6.4-.3.8-.8 1.2-1.3.4-.6.9-1.2 1.5-2 .4-.6.7-1.2 1.1-1.8.4-.6.7-1.3 1-2.1.1-.3.3-.6.4-.9.1-.3.2-.6.3-1-.9-.3-1.8-1-2.6-1.7zM22.3 6.5c1.4-1.8 2.1-3.6 2.1-5.7V.4 0c-1 .1-2 .4-3.2.9-1.1.6-2 1.3-2.8 2.1-1.4 1.7-2.2 3.5-2.2 5.5v.8c2.4.2 4.3-.7 6.1-2.8z"/></svg>